<svg width="28" height="29" viewBox="0 0 28 29" fill="none" xmlns="http://www.w3.org/2000/svg">
<g id="vuesax/linear/lock">
<g id="lock">
<path id="Vector" d="M6.95605 12.07V9.656C6.95605 5.66086 8.1154 2.41406 13.9121 2.41406C19.7088 2.41406 20.8681 5.66086 20.8681 9.656V12.07" stroke="black" stroke-width="1.5" stroke-linecap="round" stroke-linejoin="round"/>
<path id="Vector_2" d="M13.912 22.3294C15.5127 22.3294 16.8104 20.9784 16.8104 19.3119C16.8104 17.6454 15.5127 16.2944 13.912 16.2944C12.3113 16.2944 11.0137 17.6454 11.0137 19.3119C11.0137 20.9784 12.3113 22.3294 13.912 22.3294Z" stroke="black" stroke-width="1.5" stroke-linecap="round" stroke-linejoin="round"/>
<path id="Vector_3" d="M19.709 26.5537H8.11555C3.47819 26.5537 2.31885 25.3467 2.31885 20.5187V18.1048C2.31885 13.2768 3.47819 12.0698 8.11555 12.0698H19.709C24.3463 12.0698 25.5057 13.2768 25.5057 18.1048V20.5187C25.5057 25.3467 24.3463 26.5537 19.709 26.5537Z" stroke="black" stroke-width="1.5" stroke-linecap="round" stroke-linejoin="round"/>
</g>
</g>
</svg>
